<svg xmlns="http://www.w3.org/2000/svg" width="320" height="460" viewBox="0 0 320 460">
<defs><linearGradient id="g" x1="0" y1="0" x2="1" y2="1"><stop stop-color="#23113f"/><stop offset="1" stop-color="#6936a8"/></linearGradient><filter id="glow"><feGaussianBlur stdDeviation="3" result="b"/><feMerge><feMergeNode in="b"/><feMergeNode in="SourceGraphic"/></feMerge></filter></defs>
<rect width="320" height="460" rx="28" fill="url(#g)"/>
<rect x="14" y="14" width="292" height="432" rx="22" fill="none" stroke="#ffd98e" stroke-width="3"/>
<rect x="27" y="27" width="266" height="406" rx="18" fill="none" stroke="#ffffff" stroke-opacity=".28"/>
<circle cx="272" cy="394" r="1.8" fill="#fff8d7" opacity=".75"/><circle cx="65" cy="45" r="1.0" fill="#fff8d7" opacity=".75"/><circle cx="118" cy="76" r="1.4" fill="#fff8d7" opacity=".75"/><circle cx="171" cy="107" r="1.8" fill="#fff8d7" opacity=".75"/><circle cx="224" cy="138" r="1.0" fill="#fff8d7" opacity=".75"/><circle cx="277" cy="169" r="1.4" fill="#fff8d7" opacity=".75"/><circle cx="70" cy="200" r="1.8" fill="#fff8d7" opacity=".75"/><circle cx="123" cy="231" r="1.0" fill="#fff8d7" opacity=".75"/><circle cx="176" cy="262" r="1.4" fill="#fff8d7" opacity=".75"/><circle cx="229" cy="293" r="1.8" fill="#fff8d7" opacity=".75"/><circle cx="22" cy="324" r="1.0" fill="#fff8d7" opacity=".75"/><circle cx="75" cy="355" r="1.4" fill="#fff8d7" opacity=".75"/><circle cx="128" cy="386" r="1.8" fill="#fff8d7" opacity=".75"/><circle cx="181" cy="37" r="1.0" fill="#fff8d7" opacity=".75"/><circle cx="234" cy="68" r="1.4" fill="#fff8d7" opacity=".75"/><circle cx="27" cy="99" r="1.8" fill="#fff8d7" opacity=".75"/><circle cx="80" cy="130" r="1.0" fill="#fff8d7" opacity=".75"/><circle cx="133" cy="161" r="1.4" fill="#fff8d7" opacity=".75"/>
<path d="M72 95 C105 47 178 45 220 87" fill="none" stroke="#ffffff" stroke-opacity=".22" stroke-width="2"/>
<circle cx="72" cy="95" r="4" fill="#fff"/><circle cx="132" cy="62" r="4" fill="#fff"/><circle cx="220" cy="87" r="4" fill="#fff"/>
<path d="M203 90 l9 105 h-18 z" fill="#dff6ff"/><rect x="184" y="194" width="38" height="8" rx="4" fill="#ffd98e"/><rect x="199" y="201" width="8" height="43" fill="#8b5ed7"/>
<g filter="url(#glow)">
<ellipse cx="145" cy="287" rx="66" ry="62" fill="#222033"/>
<circle cx="145" cy="220" r="55" fill="#222033"/>
<path d="M105 190 L120 142 L145 187 Z" fill="#222033"/>
<path d="M185 190 L172 142 L145 187 Z" fill="#222033"/>
<path d="M116 183 L123 160 L136 185 Z" fill="#f7c9ff" opacity=".75"/>
<path d="M174 183 L168 160 L154 185 Z" fill="#f7c9ff" opacity=".75"/>
<circle cx="126" cy="218" r="8" fill="#ffe87a"/><circle cx="164" cy="218" r="8" fill="#ffe87a"/>
<circle cx="129" cy="218" r="3" fill="#221436"/><circle cx="167" cy="218" r="3" fill="#221436"/>
<path d="M145 231 q-7 9-14 0" fill="none" stroke="#221436" stroke-width="3" stroke-linecap="round"/>
<path d="M145 231 q7 9 14 0" fill="none" stroke="#221436" stroke-width="3" stroke-linecap="round"/>
<path d="M145 224 l-7 8 h14 z" fill="#f2a6c8"/>
<path d="M94 284 C44 284 51 346 103 329" fill="none" stroke="#222033" stroke-width="20" stroke-linecap="round"/>
<circle cx="112" cy="300" r="8" fill="#ffffff" opacity=".18"/><circle cx="176" cy="300" r="8" fill="#ffffff" opacity=".18"/>
</g>
<text x="160" y="382" text-anchor="middle" font-family="Georgia,serif" font-size="24" font-weight="700" fill="#ffd98e">Seven of Swords</text>
<text x="160" y="410" text-anchor="middle" font-family="Arial,sans-serif" font-size="13" letter-spacing="3" fill="#ffffff" opacity=".78">COSMIC CAT TAROT</text>
</svg>