<svg xmlns="http://www.w3.org/2000/svg" width="320" height="460" viewBox="0 0 320 460">
<defs><linearGradient id="g" x1="0" y1="0" x2="1" y2="1"><stop stop-color="#102344"/><stop offset="1" stop-color="#2e79b9"/></linearGradient><filter id="glow"><feGaussianBlur stdDeviation="3" result="b"/><feMerge><feMergeNode in="b"/><feMergeNode in="SourceGraphic"/></feMerge></filter></defs>
<rect width="320" height="460" rx="28" fill="url(#g)"/>
<rect x="14" y="14" width="292" height="432" rx="22" fill="none" stroke="#ffe6a7" stroke-width="3"/>
<rect x="27" y="27" width="266" height="406" rx="18" fill="none" stroke="#ffffff" stroke-opacity=".28"/>
<circle cx="57" cy="79" r="1.4" fill="#fff8d7" opacity=".75"/><circle cx="110" cy="110" r="1.8" fill="#fff8d7" opacity=".75"/><circle cx="163" cy="141" r="1.0" fill="#fff8d7" opacity=".75"/><circle cx="216" cy="172" r="1.4" fill="#fff8d7" opacity=".75"/><circle cx="269" cy="203" r="1.8" fill="#fff8d7" opacity=".75"/><circle cx="62" cy="234" r="1.0" fill="#fff8d7" opacity=".75"/><circle cx="115" cy="265" r="1.4" fill="#fff8d7" opacity=".75"/><circle cx="168" cy="296" r="1.8" fill="#fff8d7" opacity=".75"/><circle cx="221" cy="327" r="1.0" fill="#fff8d7" opacity=".75"/><circle cx="274" cy="358" r="1.4" fill="#fff8d7" opacity=".75"/><circle cx="67" cy="389" r="1.8" fill="#fff8d7" opacity=".75"/><circle cx="120" cy="40" r="1.0" fill="#fff8d7" opacity=".75"/><circle cx="173" cy="71" r="1.4" fill="#fff8d7" opacity=".75"/><circle cx="226" cy="102" r="1.8" fill="#fff8d7" opacity=".75"/><circle cx="279" cy="133" r="1.0" fill="#fff8d7" opacity=".75"/><circle cx="72" cy="164" r="1.4" fill="#fff8d7" opacity=".75"/><circle cx="125" cy="195" r="1.8" fill="#fff8d7" opacity=".75"/><circle cx="178" cy="226" r="1.0" fill="#fff8d7" opacity=".75"/>
<path d="M72 95 C105 47 178 45 220 87" fill="none" stroke="#ffffff" stroke-opacity=".22" stroke-width="2"/>
<circle cx="72" cy="95" r="4" fill="#fff"/><circle cx="132" cy="62" r="4" fill="#fff"/><circle cx="220" cy="87" r="4" fill="#fff"/>
<circle cx="203" cy="160" r="38" fill="#ffe6a7" opacity=".9"/><text x="203" y="174" text-anchor="middle" font-size="42" fill="#3a1a5c">★</text>
<g filter="url(#glow)">
<ellipse cx="145" cy="287" rx="66" ry="62" fill="#222033"/>
<circle cx="145" cy="220" r="55" fill="#222033"/>
<path d="M105 190 L120 142 L145 187 Z" fill="#222033"/>
<path d="M185 190 L172 142 L145 187 Z" fill="#222033"/>
<path d="M116 183 L123 160 L136 185 Z" fill="#c8f4ff" opacity=".75"/>
<path d="M174 183 L168 160 L154 185 Z" fill="#c8f4ff" opacity=".75"/>
<circle cx="126" cy="218" r="8" fill="#ffe87a"/><circle cx="164" cy="218" r="8" fill="#ffe87a"/>
<circle cx="129" cy="218" r="3" fill="#221436"/><circle cx="167" cy="218" r="3" fill="#221436"/>
<path d="M145 231 q-7 9-14 0" fill="none" stroke="#221436" stroke-width="3" stroke-linecap="round"/>
<path d="M145 231 q7 9 14 0" fill="none" stroke="#221436" stroke-width="3" stroke-linecap="round"/>
<path d="M145 224 l-7 8 h14 z" fill="#f2a6c8"/>
<path d="M94 284 C44 284 51 346 103 329" fill="none" stroke="#222033" stroke-width="20" stroke-linecap="round"/>
<circle cx="112" cy="300" r="8" fill="#ffffff" opacity=".18"/><circle cx="176" cy="300" r="8" fill="#ffffff" opacity=".18"/>
</g>
<text x="160" y="382" text-anchor="middle" font-family="Georgia,serif" font-size="24" font-weight="700" fill="#ffe6a7">The Magician</text>
<text x="160" y="410" text-anchor="middle" font-family="Arial,sans-serif" font-size="13" letter-spacing="3" fill="#ffffff" opacity=".78">COSMIC CAT TAROT</text>
</svg>