<svg xmlns="http://www.w3.org/2000/svg" width="320" height="460" viewBox="0 0 320 460">
<defs><linearGradient id="g" x1="0" y1="0" x2="1" y2="1"><stop stop-color="#102344"/><stop offset="1" stop-color="#2e79b9"/></linearGradient><filter id="glow"><feGaussianBlur stdDeviation="3" result="b"/><feMerge><feMergeNode in="b"/><feMergeNode in="SourceGraphic"/></feMerge></filter></defs>
<rect width="320" height="460" rx="28" fill="url(#g)"/>
<rect x="14" y="14" width="292" height="432" rx="22" fill="none" stroke="#ffe6a7" stroke-width="3"/>
<rect x="27" y="27" width="266" height="406" rx="18" fill="none" stroke="#ffffff" stroke-opacity=".28"/>
<circle cx="93" cy="187" r="1.0" fill="#fff8d7" opacity=".75"/><circle cx="146" cy="218" r="1.4" fill="#fff8d7" opacity=".75"/><circle cx="199" cy="249" r="1.8" fill="#fff8d7" opacity=".75"/><circle cx="252" cy="280" r="1.0" fill="#fff8d7" opacity=".75"/><circle cx="45" cy="311" r="1.4" fill="#fff8d7" opacity=".75"/><circle cx="98" cy="342" r="1.8" fill="#fff8d7" opacity=".75"/><circle cx="151" cy="373" r="1.0" fill="#fff8d7" opacity=".75"/><circle cx="204" cy="24" r="1.4" fill="#fff8d7" opacity=".75"/><circle cx="257" cy="55" r="1.8" fill="#fff8d7" opacity=".75"/><circle cx="50" cy="86" r="1.0" fill="#fff8d7" opacity=".75"/><circle cx="103" cy="117" r="1.4" fill="#fff8d7" opacity=".75"/><circle cx="156" cy="148" r="1.8" fill="#fff8d7" opacity=".75"/><circle cx="209" cy="179" r="1.0" fill="#fff8d7" opacity=".75"/><circle cx="262" cy="210" r="1.4" fill="#fff8d7" opacity=".75"/><circle cx="55" cy="241" r="1.8" fill="#fff8d7" opacity=".75"/><circle cx="108" cy="272" r="1.0" fill="#fff8d7" opacity=".75"/><circle cx="161" cy="303" r="1.4" fill="#fff8d7" opacity=".75"/><circle cx="214" cy="334" r="1.8" fill="#fff8d7" opacity=".75"/>
<path d="M72 95 C105 47 178 45 220 87" fill="none" stroke="#ffffff" stroke-opacity=".22" stroke-width="2"/>
<circle cx="72" cy="95" r="4" fill="#fff"/><circle cx="132" cy="62" r="4" fill="#fff"/><circle cx="220" cy="87" r="4" fill="#fff"/>
<circle cx="203" cy="160" r="38" fill="#ffe6a7" opacity=".9"/><text x="203" y="174" text-anchor="middle" font-size="42" fill="#3a1a5c">★</text>
<g filter="url(#glow)">
<ellipse cx="145" cy="287" rx="66" ry="62" fill="#9fd3ff"/>
<circle cx="145" cy="220" r="55" fill="#9fd3ff"/>
<path d="M105 190 L120 142 L145 187 Z" fill="#9fd3ff"/>
<path d="M185 190 L172 142 L145 187 Z" fill="#9fd3ff"/>
<path d="M116 183 L123 160 L136 185 Z" fill="#c8f4ff" opacity=".75"/>
<path d="M174 183 L168 160 L154 185 Z" fill="#c8f4ff" opacity=".75"/>
<circle cx="126" cy="218" r="8" fill="#ffe87a"/><circle cx="164" cy="218" r="8" fill="#ffe87a"/>
<circle cx="129" cy="218" r="3" fill="#221436"/><circle cx="167" cy="218" r="3" fill="#221436"/>
<path d="M145 231 q-7 9-14 0" fill="none" stroke="#221436" stroke-width="3" stroke-linecap="round"/>
<path d="M145 231 q7 9 14 0" fill="none" stroke="#221436" stroke-width="3" stroke-linecap="round"/>
<path d="M145 224 l-7 8 h14 z" fill="#f2a6c8"/>
<path d="M94 284 C44 284 51 346 103 329" fill="none" stroke="#9fd3ff" stroke-width="20" stroke-linecap="round"/>
<circle cx="112" cy="300" r="8" fill="#ffffff" opacity=".18"/><circle cx="176" cy="300" r="8" fill="#ffffff" opacity=".18"/>
</g>
<text x="160" y="382" text-anchor="middle" font-family="Georgia,serif" font-size="24" font-weight="700" fill="#ffe6a7">The Hermit</text>
<text x="160" y="410" text-anchor="middle" font-family="Arial,sans-serif" font-size="13" letter-spacing="3" fill="#ffffff" opacity=".78">COSMIC CAT TAROT</text>
</svg>